<svg width="64" height="100" viewBox="0 0 64 100" fill="none" xmlns="http://www.w3.org/2000/svg">
<path d="M0.439148 73.5966L3.49343 71.9442L9.8565 72.4526L40.0175 94.8239L47.3987 96.8577L48.544 95.8408L48.2895 94.0613L43.7081 89.4853L43.9626 86.1805L47.7804 85.0365L57.7069 94.6968L57.3251 95.2053L47.7804 86.1805L45.2352 87.1973L44.8534 88.8498L49.4349 93.4257L49.8166 95.4595L49.4349 96.7306L47.9077 98.1288L39.2539 95.8408L9.98377 73.5966L3.62069 72.8339L0.439148 73.5966Z" fill="#FF1F00"/>
<path d="M0.439148 0L16.4741 13.2194L25.8915 27.9642L34.1635 36.4805L28.564 32.6672L30.3456 35.2094L32.6363 43.8529L37.345 49.4457L37.5995 51.4795L42.8173 58.0892L40.272 56.1826L43.3263 63.5549L51.8528 72.5797L48.544 70.2918L50.5802 75.6304L56.1797 80.2063L61.0157 95.2053L59.4885 96.4764L63.5609 99.9084V94.824L53.889 62.0296L46.8896 44.9969L42.8173 38.3872L48.035 46.0138L56.5615 65.4616L59.6158 79.4437L62.7973 70.546L62.2883 64.5718L61.1429 63.5549L59.6158 64.5718L61.1429 60.7585L60.5066 56.3097L57.8341 54.403L58.2159 51.3524L56.816 48.8102L51.8528 42.9631L49.6894 36.7348L49.1803 40.9294L46.3806 31.6504L20.0374 10.423L5.52961 2.16087L0.439148 0Z" fill="#FF1F00"/>
</svg>
